<svg xmlns="http://www.w3.org/2000/svg" xmlns:xlink="http://www.w3.org/1999/xlink" width="40" zoomAndPan="magnify" viewBox="0 0 30 30.000001" height="40" preserveAspectRatio="xMidYMid meet" version="1.0"><defs><clipPath id="072f956507"><path d="M 2.226562 1.742188 L 27.628906 1.742188 L 27.628906 27.144531 L 2.226562 27.144531 Z M 2.226562 1.742188 " clip-rule="nonzero"/></clipPath></defs><g clip-path="url(#072f956507)"><path fill="#38b6ff" d="M 14.996094 1.742188 C 22.046875 1.742188 27.765625 7.457031 27.765625 14.511719 C 27.765625 21.5625 22.046875 27.28125 14.996094 27.28125 C 7.941406 27.28125 2.226562 21.5625 2.226562 14.511719 C 2.226562 7.457031 7.941406 1.742188 14.996094 1.742188 " fill-opacity="1" fill-rule="evenodd"/></g><path fill="#ffffff" d="M 18.65625 9.523438 L 18.65625 8.191406 C 18.65625 7.824219 18.355469 7.527344 17.988281 7.527344 C 17.621094 7.527344 17.324219 7.824219 17.324219 8.191406 L 17.324219 9.523438 C 17.324219 9.890625 17.621094 10.1875 17.988281 10.1875 C 18.355469 10.1875 18.65625 9.890625 18.65625 9.523438 Z M 12.167969 10.1875 C 12.445312 10.1875 12.667969 9.964844 12.667969 9.6875 L 12.667969 8.027344 C 12.667969 7.75 12.445312 7.527344 12.167969 7.527344 L 11.839844 7.527344 C 11.5625 7.527344 11.335938 7.75 11.335938 8.027344 L 11.335938 9.6875 C 11.335938 9.964844 11.5625 10.1875 11.839844 10.1875 Z M 8.429688 8.859375 C 8.199219 8.859375 8.011719 9.050781 8.011719 9.289062 L 8.011719 21.0625 C 8.011719 21.300781 8.199219 21.496094 8.429688 21.496094 L 21.558594 21.496094 C 21.789062 21.496094 21.980469 21.300781 21.980469 21.0625 L 21.980469 9.289062 C 21.980469 9.050781 21.789062 8.859375 21.558594 8.859375 L 19.320312 8.859375 L 19.320312 10.101562 C 19.320312 10.519531 18.871094 10.851562 18.320312 10.851562 L 17.65625 10.851562 C 17.101562 10.851562 16.65625 10.519531 16.65625 10.101562 L 16.65625 8.859375 L 13.332031 8.859375 L 13.332031 10.101562 C 13.332031 10.519531 12.886719 10.851562 12.335938 10.851562 L 11.671875 10.851562 C 11.117188 10.851562 10.671875 10.519531 10.671875 10.101562 L 10.671875 8.859375 Z M 19.320312 13.511719 L 21.3125 13.511719 L 21.3125 15.511719 L 19.320312 15.511719 Z M 19.320312 16.171875 L 21.3125 16.171875 L 21.3125 18.167969 L 19.320312 18.167969 Z M 19.320312 18.835938 L 21.3125 18.835938 L 21.3125 20.578125 C 21.3125 20.71875 21.1875 20.828125 21.027344 20.828125 L 19.320312 20.828125 Z M 16.65625 13.511719 L 18.65625 13.511719 L 18.65625 15.511719 L 16.65625 15.511719 Z M 16.65625 16.171875 L 18.65625 16.171875 L 18.65625 18.167969 L 16.65625 18.167969 Z M 16.65625 18.835938 L 18.65625 18.835938 L 18.65625 20.828125 L 16.65625 20.828125 Z M 13.996094 13.511719 L 15.996094 13.511719 L 15.996094 15.511719 L 13.996094 15.511719 Z M 13.996094 18.835938 L 15.996094 18.835938 L 15.996094 20.828125 L 13.996094 20.828125 Z M 11.335938 13.511719 L 13.332031 13.511719 L 13.332031 15.511719 L 11.335938 15.511719 Z M 11.335938 16.171875 L 13.332031 16.171875 L 13.332031 18.167969 L 11.335938 18.167969 Z M 11.335938 18.835938 L 13.332031 18.835938 L 13.332031 20.828125 L 11.335938 20.828125 Z M 10.671875 20.828125 L 8.964844 20.828125 C 8.804688 20.828125 8.679688 20.71875 8.679688 20.578125 L 8.679688 18.835938 L 10.671875 18.835938 Z M 10.671875 18.167969 L 8.679688 18.167969 L 8.679688 16.171875 L 10.671875 16.171875 Z M 10.671875 15.511719 L 8.679688 15.511719 L 8.679688 13.511719 L 10.671875 13.511719 Z M 16.078125 16.089844 C 16.179688 16.058594 16.296875 16.085938 16.378906 16.167969 C 16.496094 16.285156 16.496094 16.480469 16.378906 16.601562 L 15.101562 17.875 C 15.039062 17.9375 14.960938 17.96875 14.882812 17.96875 C 14.804688 17.96875 14.726562 17.9375 14.667969 17.875 L 13.878906 17.089844 C 13.59375 16.804688 14.027344 16.371094 14.3125 16.65625 L 14.882812 17.226562 L 16.078125 16.089844 " fill-opacity="1" fill-rule="evenodd"/></svg>